HIERARCHY
ROOT Hips
{
  OFFSET 2.26061 22.2878 23.7974
  CHANNELS 6 Xposition Yposition Zposition Zrotation Xrotation Yrotation
  JOINT LeftUpLeg
  {
    OFFSET 8.64259 1.95398 -2.38835
    CHANNELS 3 Zrotation Xrotation Yrotation
    JOINT LeftLeg
    {
      OFFSET 43.7702 0 0
      CHANNELS 3 Zrotation Xrotation Yrotation
      JOINT LeftFoot
      {
        OFFSET 40.6238 0 0
        CHANNELS 3 Zrotation Xrotation Yrotation
        JOINT LeftToeBase
        {
          OFFSET 12.7242 0 0
          CHANNELS 3 Zrotation Xrotation Yrotation
          End Site
          {
            OFFSET 0 0 0
          }
        }
      }
    }
  }
  JOINT RightUpLeg
  {
    OFFSET -8.2249 1.95398 -2.59336
    CHANNELS 3 Zrotation Xrotation Yrotation
    JOINT RightLeg
    {
      OFFSET 43.5653 0 0
      CHANNELS 3 Zrotation Xrotation Yrotation
      JOINT RightFoot
      {
        OFFSET 40.6238 0 0
        CHANNELS 3 Zrotation Xrotation Yrotation
        JOINT RightToeBase
        {
          OFFSET 12.7242 0 0
          CHANNELS 3 Zrotation Xrotation Yrotation
          End Site
          {
            OFFSET 0 0 0
          }
        }
      }
    }
  }
  JOINT Spine
  {
    OFFSET 0.165834 0.87714 6.61349
    CHANNELS 3 Zrotation Xrotation Yrotation
    JOINT Spine1
    {
      OFFSET 7.38963 1.71661e-005 0
      CHANNELS 3 Zrotation Xrotation Yrotation
      JOINT Spine2
      {
        OFFSET 11.9445 1.14441e-005 0
        CHANNELS 3 Zrotation Xrotation Yrotation
        JOINT Spine3
        {
          OFFSET 14.7254 4.19617e-005 0
          CHANNELS 3 Zrotation Xrotation Yrotation
          JOINT Spine4
          {
            OFFSET 10.9679 0 0
            CHANNELS 3 Zrotation Xrotation Yrotation
            JOINT RightShoulder
            {
              OFFSET 2.46616 -1.6653 3.69651
              CHANNELS 3 Zrotation Xrotation Yrotation
              JOINT RightArm
              {
                OFFSET 13.0012 0 0
                CHANNELS 3 Zrotation Xrotation Yrotation
                JOINT RightForeArm
                {
                  OFFSET 28.7848 1.52588e-005 0
                  CHANNELS 3 Zrotation Xrotation Yrotation
                  JOINT RightHand
                  {
                    OFFSET 26.5688 1.52588e-005 0
                    CHANNELS 3 Zrotation Xrotation Yrotation
                    End Site
                    {
                      OFFSET 0 0 0
                    }
                  }
                }
              }
            }
            JOINT LeftShoulder
            {
              OFFSET 2.38034 -1.29275 -3.7523
              CHANNELS 3 Zrotation Xrotation Yrotation
              JOINT LeftArm
              {
                OFFSET 16.3182 6.10351e-005 0
                CHANNELS 3 Zrotation Xrotation Yrotation
                JOINT LeftForeArm
                {
                  OFFSET 27.0901 0 0
                  CHANNELS 3 Zrotation Xrotation Yrotation
                  JOINT LeftHand
                  {
                    OFFSET 24.5451 1.52588e-005 0
                    CHANNELS 3 Zrotation Xrotation Yrotation
                    End Site
                    {
                      OFFSET 0 0 0
                    }
                  }
                }
              }
            }
            JOINT Neck
            {
              OFFSET 5.0226 -0.0266342 0
              CHANNELS 3 Zrotation Xrotation Yrotation
              JOINT Head
              {
                OFFSET 6.69363 2.86102e-005 0
                CHANNELS 3 Zrotation Xrotation Yrotation
                End Site
                {
                  OFFSET 0 0 0
                }
              }
            }
          }
        }
      }
    }
  }
}
MOTION
Frames:	15
Frame Time:	0.0416667
-47.6266 94.2279 -45.4398 88.5997 -36.0251 86.308 -172.978 -2.79422 88.9018 -28.7129 25.8784 1.29868 65.9117 5.85562 3.23252 44.5465 13.0376 5.66929 176.193 25.806 87.4798 -4.892 -3.21694 -3.14876 64.9966 -2.57945 -1.3846 50.4527 -0.00418174 -8.67891 -1.12552 7.48453 -89.8825 11.9112 -2.18269 0.469252 0.242004 -2.1599 0.564891 -22.3078 -2.22278 -0.208766 -2.2952 -2.22274 -0.208768 94.4713 -57.0166 -92.9585 21.4939 -3.48012 21.4233 -12.4033 -37.3537 -35.5323 1.36565 -0.632375 6.13272 -99.9728 -49.7825 63.9648 -7.95675 8.68728 -7.42537 9.26984 5.24217 -55.5484 15.4198 0.830391 1.5085 4.44593 0.582202 1.61824 0.55095 0.355135 0.637434 
-38.4371 92.2348 -34.6167 90.3725 -35.9184 89.6827 -173.149 -4.71949 93.8695 -40.1219 27.3289 4.29667 54.7587 -2.52575 -1.28768 48.5856 17.1136 9.20144 176.758 27.3221 90.3212 -21.2811 -1.05233 -2.00502 59.2918 -1.27554 -0.682337 44.1934 0.0146108 -9.47001 -1.2651 7.54343 -90.1232 11.7922 -2.5738 0.0270227 0.123794 -2.57013 0.140346 -22.4309 -2.46285 -0.748243 -2.41822 -2.46287 -0.748244 94.6338 -56.8564 -92.7483 21.1457 -2.27211 23.0314 -12.2506 -37.6144 -33.6283 1.47384 -0.627354 5.58877 -100.218 -50.865 64.0074 -7.70037 5.7386 -5.06632 6.40484 1.90637 -57.2259 13.9563 0.696337 1.0738 2.93988 1.04889 1.44893 1.00262 0.905007 1.58261 
-29.5199 91.747 -24.9099 92.5653 -37.9609 94.3497 -173.46 3.9637 98.0903 -58.2969 18.702 3.59399 38.2417 -12.6757 -7.01484 37.7995 7.51308 13.689 177.225 26.3395 95.3995 -38.4637 0.649848 -1.44526 66.1167 -2.98742 -1.5937 32.0019 0.324861 -3.60317 -0.93089 7.64085 -90.4111 11.5853 -2.04411 -0.605821 -0.0841432 -2.06879 -0.515245 -22.6282 -1.76751 -1.19229 -2.61553 -1.76752 -1.1923 92.7303 -54.2892 -95.8841 24.1096 -2.96608 19.8819 -10.9409 -33.896 -34.952 0.606328 -0.623381 6.57946 -102.433 -53.3933 61.8313 -9.72191 7.59397 -1.42034 5.74001 3.63881 -51.0862 17.3601 1.12785 2.6458 1.91101 0.887861 1.67964 0.458184 0.711132 1.29863 
-21.4915 94.2383 -15.8695 93.2266 -40.4732 92.9873 -172.363 16.2485 93.3253 -62.5746 13.3949 1.01402 48.0985 -5.914 -1.3625 42.2962 11.735 11.8778 178.375 15.5166 95.6247 -34.2506 0.182039 -3.33839 71.1371 -4.70448 -2.40567 30.7659 0.244519 -3.09437 -0.393222 7.64526 -90.0543 11.5854 -0.807646 -0.0255085 -0.0852704 -0.807967 0.0100604 -22.6224 -0.762642 -0.267069 -2.60973 -0.762655 -0.267077 92.3437 -52.7049 -96.7225 25.6463 -6.08249 11.8756 -9.99428 -28.7308 -41.5309 -4.92683 -0.801485 4.39399 -103.082 -54.0107 61.1669 -15.0811 10.7621 1.38462 4.76498 8.91434 -38.7508 17.8109 1.51592 4.65734 0.39273 -0.11004 1.52346 0.84279 -0.266112 0.463542 
-13.384 96.144 -7.30664 92.0526 -44.833 89.8892 -170.607 21.0577 88.8116 -40.1888 6.80957 -2.1733 56.7024 0.023903 0.872279 45.2344 14.6382 12.5246 177.302 5.84356 93.5738 -28.1234 -4.30251 -4.50235 71.3634 -4.55879 -2.29174 33.9451 0.299116 -2.12549 0.228938 7.49302 -89.6849 11.8861 0.603611 0.563687 0.215167 0.627821 0.536557 -22.3196 0.40629 0.71902 -2.30696 0.406289 0.719016 92.1193 -50.9599 -97.3847 23.6968 -9.25308 3.06182 -11.1732 -24.6154 -50.6906 -8.80488 -0.84367 2.73415 -103.166 -54.2965 61.1603 -21.1934 12.8619 8.09427 1.74923 10.5691 -29.276 14.7723 1.32181 4.97887 0.515744 -0.444384 2.14249 1.06966 -0.71773 -0.602574 
-4.44369 95.5635 0.228237 88.7588 -50.0014 88.2553 -173.09 21.3116 89.4395 -6.2527 -0.47831 -1.48881 60.4614 2.58635 -1.59062 44.9672 15.0737 16.9391 175.854 -0.0196921 92.2149 -25.866 -10.2435 -4.65414 72.4182 -5.43279 -2.67417 37.6593 0.397855 -3.11428 0.865 7.35655 -89.7451 12.1594 1.84006 0.304679 0.489747 1.85166 0.223365 -22.0541 1.66339 0.843745 -2.04145 1.66338 0.843739 91.9091 -47.2766 -98.4468 20.8564 -10.0295 -7.28143 -14.7687 -22.1645 -59.3021 -10.2474 -0.69915 0.651313 -103.402 -55.512 61.3006 -25.4597 12.8883 15.1042 1.64007 13.2848 -25.4919 11.6911 1.00817 4.52978 4.09804 -0.0464559 3.57001 -1.12898 -0.598374 -1.00308 
5.12225 93.5733 8.29752 88.2493 -54.234 88.6251 -174.251 25.8602 91.2037 -4.27082 5.26085 -0.29752 61.8188 2.22722 -0.918745 46.929 17.0498 16.8035 175.837 -4.33273 89.7132 -32.6507 -14.9559 -7.21433 70.2128 -4.84377 -2.59463 47.7768 0.466688 -4.88504 1.29985 7.42144 -89.7525 12.0304 2.70109 0.199641 0.362259 2.70725 0.0804756 -22.1929 2.51615 1.00271 -2.18029 2.51614 1.00272 91.3968 -46.3607 -99.4605 17.6929 -8.53601 -13.8985 -16.9249 -20.3659 -64.9346 -11.4405 -0.728885 0.699988 -101.268 -55.5309 64.2104 -28.7865 11.9983 19.5307 1.6338 14.5536 -23.1338 10.3867 0.981706 5.2048 6.11384 0.185719 2.68496 -1.96208 -0.257421 0.0855862 
15.6975 92.2812 17.8712 89.9128 -52.6623 85.8223 -172.637 27.2791 86.7105 -20.2892 11.9492 -2.61799 55.4488 -1.50856 2.17327 41.2862 10.3902 6.9556 176.623 1.32392 87.8769 -50.1564 -11.7785 -8.61159 49.0108 2.50528 2.56529 45.0469 0.752348 1.16601 1.13926 7.4542 -89.2277 11.9555 2.62941 1.25584 0.286808 2.68215 1.13883 -22.2591 2.13042 1.98817 -2.24647 2.13041 1.98816 91.5286 -49.4918 -98.5852 17.2833 -8.25863 -9.47052 -16.1267 -17.9727 -66.3484 -13.9923 -0.82183 0.924516 -101.604 -54.5463 63.399 -29.2553 12.413 20.381 1.11173 17.5541 -20.2853 8.04575 0.796819 5.33234 4.13445 -0.793762 0.741475 -1.45297 -0.895965 0.0898653 
25.4358 93.0012 26.244 91.3804 -50.3187 85.6199 -172.55 23.0975 83.8232 -30.1358 13.405 -3.10627 61.7302 3.18561 5.2217 32.6304 3.06769 -0.700876 179.442 13.1979 85.5346 -69.3167 0.363128 -5.885 38.6775 3.71348 3.94472 30.1879 0.344298 -5.26066 0.663872 7.55936 -89.1543 11.742 1.71751 1.5049 0.0714575 1.78208 1.42784 -22.4617 1.18591 1.95142 -2.44904 1.18591 1.95141 92.481 -50.9499 -96.8359 20.1267 -9.5016 -3.31854 -13.7278 -21.072 -59.7892 -13.2108 -0.811501 1.01471 -102.676 -53.3912 61.4902 -27.8127 11.939 16.5393 2.4453 15.883 -23.4696 9.03189 0.859649 5.12436 3.85051 -0.367777 1.38969 -0.621003 -0.562872 0.0900218 
34.8623 95.6341 34.2731 91.5239 -46.3669 88.0425 -174.197 13.3389 84.7956 -26.5683 15.0537 -1.20907 63.9945 5.009 4.95814 32.8838 3.21308 0.510162 177.811 23.2192 89.3815 -66.2357 2.89056 -3.3937 53.5823 -0.432922 -0.125951 35.2074 0.414105 -8.73169 0.0497764 7.53454 -89.5778 11.8018 0.297582 0.811001 0.130655 0.333007 0.797114 -22.4024 0.0400964 0.862935 -2.38971 0.0400897 0.862936 92.8142 -52.975 -95.975 21.9961 -10.0081 4.64655 -11.8437 -27.1919 -50.0872 -11.2246 -0.854854 1.84763 -103.003 -52.7992 60.8077 -22.3818 13.9631 9.75364 2.94333 11.6537 -31.9239 13.1223 1.1241 4.53387 1.21528 0.322857 2.54361 0.521144 0.0118139 0.171995 
43.3959 96.5312 42.5228 89.9329 -41.9076 87.4137 -174.101 5.76466 85.8492 -23.7347 17.3052 -0.560144 64.6692 4.81228 3.53464 36.3748 6.00136 3.41334 175.53 24.8451 90.3705 -37.2122 7.32718 -1.15379 62.5519 -2.75515 -1.59875 38.3253 0.330789 -7.07772 -0.538185 7.4535 -89.7568 11.9692 -0.955366 0.587846 0.298476 -0.92857 0.629321 -22.2392 -1.08788 0.273508 -2.22655 -1.08788 0.273517 93.1909 -54.9816 -95.0974 22.5339 -7.53332 12.5887 -10.9393 -33.5519 -41.3619 -4.82645 -0.843359 4.27369 -101.906 -50.9733 61.6405 -15.869 13.9717 1.89249 4.79618 7.98311 -42.8238 15.7904 1.21514 3.80008 -0.00589867 0.482761 1.95282 1.66731 0.304995 0.955833 
51.9016 95.0116 51.6477 89.0847 -37.9598 85.9554 -173.466 -0.436756 86.9304 -25.9727 21.9345 0.206103 66.5521 6.22018 3.96212 41.2757 10.1128 4.20589 175.67 24.2769 89.0428 -7.11961 1.0635 -1.80387 65.3994 -2.6901 -1.46925 45.3883 0.337112 -6.29998 -1.00868 7.48356 -89.745 11.9136 -1.88549 0.711679 0.243785 -1.85236 0.794004 -22.3022 -2.01219 0.111908 -2.28953 -2.01218 0.111897 94.3882 -56.722 -93.1154 21.5975 -4.72542 19.4377 -11.8673 -36.7935 -37.2236 -1.33582 -0.763593 5.55364 -100.53 -48.8406 62.7999 -9.83254 11.1918 -6.35143 7.39172 6.41356 -50.5892 16.1228 1.07801 2.79099 1.26704 0.911613 0.161231 2.46118 1.00183 2.0728 
60.9056 92.5622 61.6078 90.1837 -36.7008 86.6076 -173.362 -4.58518 89.7038 -34.2053 27.5379 2.5098 62.7829 3.42973 3.32703 49.6719 17.2723 4.98761 176.556 24.5597 89.4425 -7.93252 -0.88919 -2.39717 64.3154 -3.38238 -1.92781 46.1962 0.356658 -5.8438 -1.25119 7.55028 -89.8006 11.7823 -2.3946 0.651163 0.113342 -2.3636 0.755969 -22.4396 -2.4795 -0.0990443 -2.42691 -2.47952 -0.0990503 94.9771 -57.0764 -92.2309 20.6096 -2.77857 23.5032 -11.1967 -36.4949 -34.4447 -0.150158 -0.700202 6.18654 -100.071 -48.8065 63.4569 -7.43515 6.84191 -8.45672 8.60147 4.5562 -55.6872 17.2784 1.11555 2.58574 2.32876 1.94997 0.725655 1.98575 1.93377 1.9898 
70.8668 91.401 71.8475 92.1619 -37.9593 93.2807 -172.636 -2.3214 96.9911 -47.9352 22.9674 3.96131 44.2797 -9.32166 -5.26597 47.0518 16.328 12.4339 175.957 28.9337 94.9229 -33.8534 2.20658 0.0810486 61.9672 -1.5715 -0.809448 37.1162 0.364926 -4.2395 -1.1248 7.59993 -90.4546 11.6648 -2.45041 -0.650054 -0.00402923 -2.47663 -0.541526 -22.5525 -2.14173 -1.35671 -2.53982 -2.14173 -1.35672 93.5722 -56.3108 -94.3422 20.0739 -2.3 22.4021 -9.84693 -35.3264 -33.0642 0.887106 -0.615942 6.56876 -101.338 -52.0639 62.8637 -8.04146 5.77729 -4.21989 6.59001 2.7732 -55.7434 18.6721 1.09542 2.00484 1.57385 2.26115 3.11002 1.0064 1.918 1.73946 
78.9858 92.2916 80.8992 93.7968 -40.0703 94.727 -173.531 10.2733 96.0462 -65.4566 14.8053 2.54823 43.799 -8.78464 -3.02406 35.9658 5.68482 13.9534 176.055 21.7344 96.815 -38.4859 2.64171 -0.00306395 71.2039 -4.53473 -2.33179 30.6228 0.115446 -0.369687 -0.720312 7.7043 -90.3926 11.4613 -1.61655 -0.617346 -0.208775 -1.64215 -0.545592 -22.7488 -1.3563 -1.0747 -2.7362 -1.35629 -1.0747 92.0865 -54.3517 -96.8102 22.9432 -3.92959 15.6946 -9.49798 -30.3703 -37.382 -2.18805 -0.727742 5.63231 -103.518 -53.4658 60.3527 -11.4385 8.87184 -0.37284 4.48999 4.28841 -46.8139 17.7839 1.25248 3.18354 0.771318 1.15025 3.06893 1.61957 0.828031 1.11284 
